<?xml version="1.0" encoding="utf-8"?>
<!-- Generator: Adobe Illustrator 27.5.0, SVG Export Plug-In . SVG Version: 6.00 Build 0)  -->
<svg version="1.1" xmlns="http://www.w3.org/2000/svg" xmlns:xlink="http://www.w3.org/1999/xlink" x="0px" y="0px"
	 viewBox="0 0 500 500" style="enable-background:new 0 0 500 500;" xml:space="preserve">
<g id="background">
	<rect id="XMLID_55_" style="fill:#2B0434;" width="500" height="500"/>
</g>
<g id="object">
	<g id="XMLID_34_">
		<g id="XMLID_32_">
			<polygon id="XMLID_31_" style="fill:#EA0707;" points="166.413,345.626 166.576,349.828 214.1,369.444 215.902,365.909 			"/>
			<polygon id="XMLID_29_" style="fill:#FF2424;" points="115.751,355.053 166.413,345.626 166.576,349.828 117.898,360.102 			"/>
			<polygon id="XMLID_16_" style="fill:#FFFFFF;" points="175.275,434.54 198.044,426.95 203.299,407.392 175.275,427.242 			"/>
			<polygon id="XMLID_17_" style="fill:#CCCCCC;" points="192.79,405.641 203.299,407.392 175.275,427.242 170.078,425.267 			"/>
			<polygon id="XMLID_11_" style="fill:#F7F7F7;" points="117.898,360.102 144.874,420.236 162.139,428.994 178.308,421.404 
				214.1,369.444 162.139,384.039 			"/>
			<polygon id="XMLID_13_" style="fill:#A0A0A0;" points="166.576,349.828 117.898,360.102 162.139,384.039 214.1,369.444 			"/>
			<polygon id="XMLID_14_" style="fill:#870303;" points="144.874,420.236 144.874,437.167 161.847,445.049 161.847,428.994 			"/>
			<polygon id="XMLID_15_" style="fill:#EA0707;" points="178.308,421.404 178.308,438.627 161.847,445.049 161.847,428.994 			"/>
			<polygon id="XMLID_18_" style="fill:#DDDDDD;" points="161.847,428.994 162.139,384.039 117.898,360.102 144.874,420.236 			"/>
			<polygon id="XMLID_21_" style="fill:#BC0404;" points="151.127,378.081 151.127,361.051 162.139,366.934 162.139,384.039 			"/>
			<polygon id="XMLID_22_" style="fill:#EA0707;" points="175.275,380.349 162.139,384.039 162.139,366.934 175.275,362.135 			"/>
			<polygon id="XMLID_23_" style="fill:#DB2E37;" points="151.127,361.051 163.549,357.222 175.275,362.135 162.139,366.934 			"/>
			<polygon id="XMLID_28_" style="fill:#930000;" points="115.751,355.053 115.751,362.108 162.12,387.015 162.12,380.591 			"/>
			<polygon id="XMLID_30_" style="fill:#C10505;" points="162.12,387.015 215.902,372.545 215.902,365.909 162.12,380.591 			"/>
		</g>
		<polygon id="XMLID_37_" style="fill:#A51700;" points="66.25,188.488 88.36,166.752 104.622,198.106 		"/>
		<polygon id="XMLID_36_" style="fill:#E23000;" points="170.02,173.758 66.25,188.488 86.444,227.612 		"/>
		<polygon id="XMLID_3_" style="fill:#EA0707;" points="26.983,239.146 94.706,356.495 240.913,275.931 170.02,173.758 		"/>
		<polygon id="XMLID_7_" style="fill:#E23000;" points="193.373,322.633 94.706,356.495 170.494,314.734 		"/>
		<polygon id="XMLID_8_" style="fill:#A51700;" points="161.262,364.085 164.031,332.703 193.373,322.633 		"/>
		<polygon id="XMLID_4_" style="fill:#F9D500;" points="193.373,139.312 177.317,169.087 185.345,171.422 218.477,136.393 		"/>
		<polygon id="XMLID_9_" style="fill:#EA0707;" points="158.343,149.821 161.262,166.752 171.187,166.752 177.317,146.318 		"/>
		<polygon id="XMLID_24_" style="fill:#F9D500;" points="107.043,360.959 107.686,366.517 81.235,392.011 82.184,370.348 		"/>
		<polygon id="XMLID_26_" style="fill:#EA0707;" points="191.317,335.614 255.761,282.134 272,297.177 		"/>
		<polygon id="XMLID_27_" style="fill:#F9D500;" points="195.649,340.427 235.695,337.661 232.977,357.18 		"/>
		<text id="XMLID_35_" transform="matrix(0.8758 -0.4828 0.4828 0.8758 80.0562 280.2479)"><tspan x="0" y="0" style="fill:#D82900; font-family:'Bebas'; font-size:44.5192px;">BIG</tspan><tspan x="0" y="53.423" style="fill:#D82900; font-family:'Bebas'; font-size:44.5192px;">SALE!</tspan></text>
		<text id="XMLID_33_" transform="matrix(0.8758 -0.4828 0.4828 0.8758 77.606 278.8186)"><tspan x="0" y="0" style="fill:#FFFFFF; font-family:'Bebas'; font-size:44.5192px;">BIG</tspan><tspan x="0" y="53.423" style="fill:#FFFFFF; font-family:'Bebas'; font-size:44.5192px;">SALE!</tspan></text>
		<polygon id="XMLID_38_" style="fill:#CC2600;" points="94.706,356.495 179.275,317.766 170.494,314.734 		"/>
		<polygon id="XMLID_40_" style="fill:#CC2600;" points="170.02,173.758 79.909,214.951 75.502,206.412 		"/>
		<polygon id="XMLID_47_" style="fill:#930E00;" points="193.373,322.633 163.219,341.902 164.031,332.703 		"/>
		<polygon id="XMLID_50_" style="fill:#930E00;" points="66.25,188.488 94.304,178.212 97.344,184.074 		"/>
		<polygon id="XMLID_79_" style="fill:#C4BA00;" points="204.099,214.951 201.813,219.578 200.046,217.032 		"/>
		<path id="XMLID_82_" style="fill:#E23000;" d="M137.621,233.085c4.71,7.716,14.576,10.491,22.618,6.361l40.814-20.961
			l-24.448-35.236l-36.361,18.301c-9.011,4.535-12.229,15.8-6.972,24.41L137.621,233.085z"/>
		<path id="XMLID_77_" style="fill:#F9D500;" d="M138.302,200.578l41.136-20.704l24.661,35.077l-45.802,23.523
			c-8.042,4.13-17.907,1.355-22.618-6.361l-4.349-7.125C126.073,216.378,129.291,205.113,138.302,200.578z"/>
		
			<text id="XMLID_41_" transform="matrix(0.889 -0.4578 0.4578 0.889 142.6026 233.3148)" style="fill:#FFFFFF; font-family:'Bebas'; font-size:22.0107px;">50%</text>
		
			<text id="XMLID_80_" transform="matrix(0.5206 0.8538 -0.8538 0.5206 167.6107 196.5674)" style="fill:#FFFFFF; font-family:'Bebas'; font-size:15.5969px;">off</text>
	</g>
	<g id="XMLID_90_">
		<g id="XMLID_25_">
			<g id="XMLID_78_">
				<g id="XMLID_74_">
					<polygon id="XMLID_70_" style="fill:#009AD6;" points="268.064,57.903 220.535,163.089 403.595,244.886 456.118,116.06 					
						"/>
					<polygon id="XMLID_72_" style="fill:#008AB5;" points="288.8,193.592 279.355,211.745 403.595,244.886 					"/>
					<polyline id="XMLID_73_" style="fill:#007793;" points="337.162,257.769 279.355,211.745 321.056,222.869 338.534,258.092 
											"/>
					<polygon id="XMLID_71_" style="fill:#008AB5;" points="403.595,244.886 398.297,187.883 455.908,66.259 456.118,116.06 					
						"/>
					<polygon id="XMLID_75_" style="fill:#0084A3;" points="403.595,244.886 284.138,202.55 288.8,193.592 					"/>
					<polygon id="XMLID_76_" style="fill:#006D7F;" points="279.355,211.745 327.203,235.256 321.056,222.869 					"/>
				</g>
			</g>
			<polygon id="XMLID_83_" style="fill:#009AD6;" points="319.495,258.248 290.22,259.07 291.941,279.432 			"/>
			<polygon id="XMLID_81_" style="fill:#009AD6;" points="412.732,246.96 446.051,246.96 440.275,266.734 			"/>
			<polygon id="XMLID_85_" style="fill:#FF7300;" points="407.194,251.37 409.963,272.771 423.746,265.149 			"/>
			<polygon id="XMLID_86_" style="fill:#009AD6;" points="237.189,40.112 260.503,68.143 257.986,33.33 			"/>
			<polygon id="XMLID_87_" style="fill:#FF7300;" points="234.928,50.737 255.273,71.308 229.955,71.308 			"/>
		</g>
		
			<text id="XMLID_95_" transform="matrix(0.9237 0.383 -0.383 0.9237 254.1413 112.2327)" style="fill:#0084A3; font-family:'Bebas'; font-size:39.871px;">mega</text>
		
			<text id="XMLID_94_" transform="matrix(0.9237 0.383 -0.383 0.9237 237.21 147.3318)" style="fill:#0084A3; font-family:'Bebas'; font-size:37.54px;">discount</text>
		<path id="XMLID_88_" style="fill:#FF7300;" d="M372.484,82.929l-16.992,37.605c-5.663,12.532,0.301,27.254,13.089,32.312
			l2.612,1.033c12.111,4.79,25.837-0.916,30.982-12.881l18.556-43.149L372.484,82.929z"/>
		<polygon id="XMLID_91_" style="fill:#CC5700;" points="422.154,105.556 417.972,104.263 420.73,97.849 		"/>
		
			<text id="XMLID_93_" transform="matrix(0.9491 0.315 -0.315 0.9491 357.1528 130.6508)" style="fill:#FFFFFF; font-family:'Bebas'; font-size:24.1423px;">75%</text>
		
			<text id="XMLID_92_" transform="matrix(0.9491 0.315 -0.315 0.9491 368.2984 106.5107)" style="fill:#FFFFFF; font-family:'Bebas'; font-size:18.0916px;">up to</text>
		
			<text id="XMLID_89_" transform="matrix(0.9237 0.383 -0.383 0.9237 236.1839 143.227)" style="fill:#FFFFFF; font-family:'Bebas'; font-size:37.54px;">discount</text>
		
			<text id="XMLID_84_" transform="matrix(0.9237 0.383 -0.383 0.9237 252.1969 108.4321)" style="fill:#FFFFFF; font-family:'Bebas'; font-size:39.871px;">mega</text>
	</g>
	<g id="XMLID_2_">
		<polygon id="XMLID_64_" style="fill:#FF7300;" points="333.797,283.855 337.235,286.276 327.865,336.827 323.92,336.419 		"/>
		<polygon id="XMLID_61_" style="fill:#FF8327;" points="369.25,246.456 333.797,283.855 337.235,286.276 372.32,251.003 		"/>
		<polygon id="XMLID_59_" style="fill:#FFFFFF;" points="403.609,339.627 384.861,354.612 365.589,348.391 397.483,335.66 		"/>
		<polygon id="XMLID_58_" style="fill:#CCCCCC;" points="369.831,338.618 365.589,348.391 397.483,335.66 398.651,330.224 		"/>
		<polygon id="XMLID_57_" style="fill:#DDDDDD;" points="372.32,251.003 408.129,306.335 406.094,325.586 390.934,335.032 
			327.865,336.827 368.362,301.149 		"/>
		<polygon id="XMLID_52_" style="fill:#A0A0A0;" points="337.235,286.276 372.32,251.003 368.362,301.149 327.865,336.827 		"/>
		<polygon id="XMLID_46_" style="fill:#FF7300;" points="408.129,306.335 422.34,315.538 419.729,334.069 406.253,325.341 		"/>
		<polygon id="XMLID_45_" style="fill:#ED6500;" points="390.934,335.032 405.39,344.394 419.729,334.069 406.253,325.341 		"/>
		<polygon id="XMLID_42_" style="fill:#F7F7F7;" points="406.253,325.341 368.362,301.149 372.32,251.003 408.129,306.335 		"/>
		<polygon id="XMLID_39_" style="fill:#D85700;" points="369.347,288.668 355.053,279.41 354.005,291.85 368.362,301.149 		"/>
		<polygon id="XMLID_20_" style="fill:#FF7300;" points="358.124,310.169 368.362,301.149 354.005,291.85 342.836,300.267 		"/>
		<polygon id="XMLID_10_" style="fill:#ED6500;" points="355.053,279.41 345.087,287.754 342.836,300.267 354.005,291.85 		"/>
		<polygon id="XMLID_6_" style="fill:#FF7300;" points="369.25,246.456 375.171,250.291 370.87,302.751 365.479,299.259 		"/>
		<polygon id="XMLID_5_" style="fill:#D85700;" points="370.87,302.751 329.489,340.026 323.92,336.419 365.479,299.259 		"/>
	</g>
</g>
<g id="designed_by_freepik">
	<g id="XMLID_1_">
		<g id="XMLID_1087_">
			<path id="XMLID_1112_" style="fill:#FFFFFF;" d="M189.271,475.728v-0.14c-0.19,0.217-0.377,0.394-0.561,0.53
				c-0.184,0.137-0.385,0.24-0.6,0.311c-0.215,0.072-0.45,0.106-0.706,0.106c-0.338,0-0.651-0.071-0.939-0.214
				c-0.288-0.143-0.537-0.348-0.747-0.613c-0.211-0.265-0.37-0.577-0.479-0.936c-0.108-0.359-0.163-0.747-0.163-1.164
				c0-0.883,0.216-1.572,0.647-2.065c0.431-0.492,0.998-0.739,1.702-0.739c0.407,0,0.75,0.07,1.029,0.209
				c0.279,0.14,0.552,0.355,0.818,0.644v-2.084c0-0.29,0.057-0.509,0.173-0.657c0.115-0.148,0.28-0.222,0.494-0.222
				c0.214,0,0.378,0.068,0.494,0.204c0.116,0.137,0.173,0.337,0.173,0.602v6.228c0,0.269-0.062,0.471-0.186,0.605
				c-0.124,0.134-0.284,0.202-0.481,0.202c-0.193,0-0.353-0.07-0.479-0.209C189.334,476.185,189.271,475.986,189.271,475.728z
				 M186.494,473.654c0,0.383,0.059,0.708,0.178,0.978c0.119,0.269,0.282,0.472,0.489,0.607c0.207,0.137,0.433,0.205,0.678,0.205
				c0.248,0,0.475-0.065,0.68-0.195c0.205-0.129,0.369-0.328,0.491-0.594c0.123-0.267,0.183-0.602,0.183-1.001
				c0-0.376-0.061-0.699-0.183-0.971c-0.122-0.27-0.288-0.477-0.497-0.621c-0.209-0.143-0.437-0.214-0.685-0.214
				c-0.258,0-0.49,0.073-0.693,0.22c-0.203,0.146-0.361,0.356-0.473,0.631C186.549,472.973,186.494,473.291,186.494,473.654z"/>
			<path id="XMLID_1109_" style="fill:#FFFFFF;" d="M195.498,474.011h-2.762c0.003,0.32,0.068,0.603,0.194,0.848
				c0.126,0.245,0.293,0.43,0.502,0.554c0.209,0.124,0.439,0.186,0.691,0.186c0.169,0,0.323-0.019,0.463-0.059
				c0.14-0.041,0.275-0.102,0.406-0.187c0.131-0.084,0.252-0.175,0.362-0.272c0.11-0.097,0.253-0.228,0.429-0.394
				c0.072-0.062,0.176-0.093,0.311-0.093c0.145,0,0.262,0.04,0.351,0.12c0.09,0.08,0.135,0.191,0.135,0.336
				c0,0.128-0.051,0.276-0.15,0.447c-0.101,0.171-0.252,0.335-0.453,0.492c-0.202,0.157-0.455,0.287-0.761,0.39
				c-0.305,0.104-0.656,0.155-1.052,0.155c-0.907,0-1.612-0.259-2.115-0.776c-0.503-0.517-0.755-1.219-0.755-2.105
				c0-0.417,0.062-0.805,0.186-1.161c0.124-0.357,0.306-0.663,0.543-0.918c0.238-0.255,0.531-0.45,0.88-0.587
				c0.348-0.136,0.734-0.204,1.159-0.204c0.551,0,1.025,0.115,1.419,0.349c0.395,0.232,0.691,0.533,0.888,0.902
				c0.196,0.369,0.295,0.746,0.295,1.128c0,0.356-0.102,0.585-0.305,0.691C196.154,473.958,195.868,474.011,195.498,474.011z
				 M192.736,473.209h2.561c-0.034-0.483-0.165-0.845-0.391-1.084c-0.226-0.24-0.523-0.359-0.892-0.359
				c-0.352,0-0.641,0.121-0.866,0.364C192.922,472.373,192.785,472.733,192.736,473.209z"/>
			<path id="XMLID_1107_" style="fill:#FFFFFF;" d="M201.933,474.688c0,0.39-0.094,0.724-0.285,1.001
				c-0.189,0.278-0.47,0.488-0.841,0.631c-0.37,0.143-0.821,0.214-1.353,0.214c-0.507,0-0.941-0.078-1.303-0.233
				c-0.362-0.155-0.63-0.349-0.802-0.581c-0.173-0.233-0.259-0.466-0.259-0.701c0-0.155,0.055-0.288,0.166-0.398
				c0.11-0.11,0.25-0.165,0.419-0.165c0.148,0,0.261,0.036,0.341,0.108c0.079,0.072,0.156,0.174,0.227,0.305
				c0.145,0.253,0.319,0.439,0.521,0.564c0.202,0.124,0.476,0.186,0.825,0.186c0.283,0,0.515-0.063,0.696-0.189
				c0.181-0.127,0.271-0.27,0.271-0.432c0-0.248-0.094-0.429-0.282-0.543c-0.188-0.114-0.498-0.223-0.929-0.327
				c-0.486-0.12-0.882-0.247-1.187-0.38c-0.305-0.132-0.549-0.307-0.732-0.524c-0.183-0.218-0.274-0.485-0.274-0.802
				c0-0.282,0.084-0.55,0.253-0.802c0.169-0.251,0.418-0.452,0.748-0.602c0.329-0.15,0.726-0.225,1.192-0.225
				c0.366,0,0.694,0.038,0.985,0.114c0.292,0.075,0.535,0.178,0.73,0.305c0.195,0.127,0.343,0.268,0.445,0.423
				c0.102,0.155,0.152,0.307,0.152,0.456c0,0.162-0.054,0.295-0.162,0.398c-0.109,0.103-0.263,0.155-0.463,0.155
				c-0.145,0-0.268-0.042-0.37-0.125c-0.102-0.082-0.218-0.206-0.349-0.372c-0.107-0.138-0.232-0.248-0.377-0.331
				c-0.145-0.083-0.341-0.124-0.59-0.124c-0.255,0-0.467,0.054-0.636,0.163c-0.169,0.108-0.253,0.243-0.253,0.405
				c0,0.149,0.062,0.27,0.186,0.365c0.124,0.095,0.292,0.174,0.502,0.236c0.21,0.062,0.499,0.137,0.869,0.227
				c0.438,0.107,0.795,0.235,1.073,0.383c0.277,0.148,0.488,0.323,0.632,0.526C201.862,474.199,201.933,474.429,201.933,474.688z"/>
			<path id="XMLID_1104_" style="fill:#FFFFFF;" d="M203.376,470.137c-0.197,0-0.365-0.061-0.504-0.181
				c-0.14-0.12-0.21-0.291-0.21-0.512c0-0.2,0.071-0.364,0.214-0.494c0.143-0.13,0.31-0.194,0.499-0.194
				c0.183,0,0.345,0.059,0.486,0.176c0.141,0.118,0.212,0.288,0.212,0.512c0,0.218-0.069,0.387-0.207,0.51
				C203.729,470.075,203.565,470.137,203.376,470.137z M204.074,471.595v4.081c0,0.283-0.067,0.497-0.202,0.642
				c-0.135,0.145-0.305,0.217-0.512,0.217c-0.207,0-0.375-0.074-0.505-0.222c-0.13-0.148-0.194-0.361-0.194-0.637v-4.04
				c0-0.279,0.064-0.489,0.194-0.631c0.129-0.142,0.297-0.212,0.505-0.212c0.207,0,0.377,0.071,0.512,0.212
				C204.007,471.147,204.074,471.343,204.074,471.595z"/>
			<path id="XMLID_1101_" style="fill:#FFFFFF;" d="M210.26,471.828v4.102c0,0.469-0.051,0.873-0.151,1.211
				c-0.099,0.337-0.26,0.617-0.481,0.838c-0.221,0.22-0.509,0.385-0.866,0.491c-0.357,0.107-0.801,0.161-1.332,0.161
				c-0.486,0-0.921-0.068-1.304-0.204c-0.382-0.137-0.677-0.312-0.885-0.528c-0.206-0.215-0.311-0.437-0.311-0.665
				c0-0.172,0.059-0.313,0.176-0.421c0.117-0.109,0.259-0.163,0.424-0.163c0.207,0,0.388,0.091,0.543,0.274
				c0.076,0.093,0.154,0.188,0.235,0.282c0.081,0.095,0.171,0.176,0.269,0.244c0.098,0.066,0.217,0.116,0.354,0.15
				c0.138,0.032,0.297,0.049,0.476,0.049c0.366,0,0.649-0.051,0.851-0.153c0.202-0.102,0.343-0.244,0.424-0.427
				c0.081-0.182,0.128-0.378,0.142-0.587c0.014-0.209,0.024-0.544,0.031-1.007c-0.217,0.304-0.468,0.535-0.753,0.694
				c-0.284,0.159-0.623,0.238-1.016,0.238c-0.473,0-0.885-0.121-1.239-0.362c-0.353-0.242-0.625-0.579-0.814-1.014
				c-0.19-0.435-0.284-0.936-0.284-1.505c0-0.424,0.057-0.807,0.173-1.148c0.116-0.342,0.281-0.63,0.494-0.864
				c0.214-0.235,0.46-0.411,0.74-0.53c0.279-0.119,0.586-0.178,0.921-0.178c0.4,0,0.746,0.077,1.04,0.23
				c0.293,0.154,0.566,0.395,0.817,0.722v-0.192c0-0.245,0.06-0.434,0.181-0.569c0.121-0.134,0.276-0.202,0.466-0.202
				c0.272,0,0.453,0.089,0.543,0.267C210.215,471.237,210.26,471.493,210.26,471.828z M206.168,473.617
				c0,0.572,0.125,1.005,0.375,1.298c0.25,0.294,0.574,0.44,0.97,0.44c0.234,0,0.456-0.063,0.664-0.189
				c0.209-0.126,0.379-0.316,0.51-0.569c0.131-0.254,0.197-0.561,0.197-0.923c0-0.576-0.127-1.024-0.38-1.345
				c-0.254-0.321-0.587-0.481-1.001-0.481c-0.404,0-0.727,0.154-0.97,0.46C206.29,472.615,206.168,473.052,206.168,473.617z"/>
			<path id="XMLID_1099_" style="fill:#FFFFFF;" d="M212.505,471.574v0.171c0.248-0.328,0.52-0.568,0.814-0.722
				c0.295-0.153,0.633-0.23,1.016-0.23c0.373,0,0.705,0.081,0.999,0.243c0.293,0.162,0.512,0.392,0.657,0.687
				c0.094,0.173,0.154,0.36,0.181,0.559c0.028,0.201,0.042,0.455,0.042,0.766v2.627c0,0.283-0.065,0.497-0.194,0.642
				c-0.129,0.145-0.297,0.217-0.504,0.217c-0.211,0-0.381-0.074-0.512-0.222c-0.131-0.148-0.197-0.361-0.197-0.637v-2.353
				c0-0.465-0.065-0.822-0.194-1.068c-0.13-0.246-0.387-0.37-0.774-0.37c-0.251,0-0.481,0.075-0.688,0.225
				c-0.207,0.151-0.359,0.357-0.455,0.619c-0.069,0.211-0.104,0.603-0.104,1.179v1.769c0,0.286-0.067,0.501-0.199,0.645
				c-0.133,0.143-0.304,0.214-0.514,0.214c-0.204,0-0.371-0.074-0.502-0.222c-0.131-0.148-0.197-0.361-0.197-0.637v-4.081
				c0-0.269,0.059-0.47,0.176-0.603c0.117-0.133,0.278-0.199,0.481-0.199c0.124,0,0.237,0.029,0.337,0.088
				c0.099,0.059,0.18,0.147,0.24,0.263C212.474,471.262,212.505,471.405,212.505,471.574z"/>
			<path id="XMLID_1096_" style="fill:#FFFFFF;" d="M221.095,474.011h-2.762c0.004,0.32,0.068,0.603,0.194,0.848
				c0.126,0.245,0.293,0.43,0.502,0.554c0.208,0.124,0.439,0.186,0.69,0.186c0.169,0,0.323-0.019,0.463-0.059
				c0.139-0.041,0.274-0.102,0.406-0.187c0.131-0.084,0.251-0.175,0.362-0.272c0.11-0.097,0.253-0.228,0.429-0.394
				c0.072-0.062,0.176-0.093,0.31-0.093c0.145,0,0.262,0.04,0.352,0.12c0.09,0.08,0.134,0.191,0.134,0.336
				c0,0.128-0.05,0.276-0.15,0.447c-0.1,0.171-0.251,0.335-0.453,0.492c-0.202,0.157-0.455,0.287-0.76,0.39
				s-0.656,0.155-1.053,0.155c-0.907,0-1.612-0.259-2.116-0.776c-0.503-0.517-0.755-1.219-0.755-2.105
				c0-0.417,0.062-0.805,0.186-1.161c0.124-0.357,0.305-0.663,0.544-0.918c0.238-0.255,0.531-0.45,0.879-0.587
				c0.348-0.136,0.735-0.204,1.159-0.204c0.552,0,1.024,0.115,1.419,0.349c0.395,0.232,0.691,0.533,0.888,0.902
				c0.196,0.369,0.295,0.746,0.295,1.128c0,0.356-0.102,0.585-0.305,0.691C221.751,473.958,221.465,474.011,221.095,474.011z
				 M218.333,473.209h2.56c-0.034-0.483-0.165-0.845-0.39-1.084c-0.226-0.24-0.523-0.359-0.892-0.359
				c-0.352,0-0.641,0.121-0.867,0.364C218.518,472.373,218.382,472.733,218.333,473.209z"/>
			<path id="XMLID_1093_" style="fill:#FFFFFF;" d="M226.852,475.728v-0.14c-0.19,0.217-0.377,0.394-0.561,0.53
				c-0.185,0.137-0.384,0.24-0.6,0.311c-0.215,0.072-0.451,0.106-0.706,0.106c-0.339,0-0.651-0.071-0.939-0.214
				c-0.288-0.143-0.537-0.348-0.748-0.613c-0.21-0.265-0.37-0.577-0.478-0.936c-0.109-0.359-0.163-0.747-0.163-1.164
				c0-0.883,0.215-1.572,0.646-2.065c0.431-0.492,0.999-0.739,1.702-0.739c0.407,0,0.75,0.07,1.03,0.209
				c0.279,0.14,0.552,0.355,0.817,0.644v-2.084c0-0.29,0.058-0.509,0.174-0.657c0.115-0.148,0.28-0.222,0.494-0.222
				c0.214,0,0.378,0.068,0.494,0.204c0.115,0.137,0.173,0.337,0.173,0.602v6.228c0,0.269-0.062,0.471-0.186,0.605
				c-0.124,0.134-0.284,0.202-0.481,0.202c-0.193,0-0.353-0.07-0.479-0.209C226.915,476.185,226.852,475.986,226.852,475.728z
				 M224.074,473.654c0,0.383,0.059,0.708,0.178,0.978c0.119,0.269,0.282,0.472,0.489,0.607c0.207,0.137,0.432,0.205,0.677,0.205
				c0.249,0,0.475-0.065,0.68-0.195c0.205-0.129,0.369-0.328,0.491-0.594c0.123-0.267,0.184-0.602,0.184-1.001
				c0-0.376-0.061-0.699-0.184-0.971c-0.122-0.27-0.288-0.477-0.496-0.621c-0.209-0.143-0.437-0.214-0.686-0.214
				c-0.258,0-0.49,0.073-0.693,0.22c-0.203,0.146-0.361,0.356-0.473,0.631C224.13,472.973,224.074,473.291,224.074,473.654z"/>
			<path id="XMLID_1090_" style="fill:#FFFFFF;" d="M232.624,469.5v2.157c0.265-0.275,0.536-0.487,0.812-0.633
				c0.276-0.146,0.617-0.22,1.024-0.22c0.469,0,0.88,0.111,1.234,0.333c0.353,0.223,0.627,0.546,0.822,0.968
				c0.195,0.422,0.293,0.923,0.293,1.503c0,0.428-0.055,0.819-0.163,1.177c-0.109,0.357-0.267,0.666-0.473,0.928
				c-0.207,0.262-0.458,0.465-0.753,0.608c-0.295,0.143-0.62,0.214-0.975,0.214c-0.217,0-0.422-0.026-0.613-0.078
				c-0.192-0.052-0.355-0.119-0.489-0.204c-0.134-0.084-0.249-0.171-0.344-0.261c-0.095-0.089-0.22-0.225-0.375-0.404v0.14
				c0,0.265-0.064,0.466-0.191,0.603c-0.127,0.136-0.289,0.204-0.486,0.204c-0.2,0-0.36-0.068-0.478-0.204
				c-0.119-0.137-0.178-0.338-0.178-0.603v-6.166c0-0.286,0.058-0.503,0.173-0.649c0.116-0.146,0.277-0.22,0.484-0.22
				c0.217,0,0.384,0.07,0.502,0.209C232.565,469.043,232.624,469.241,232.624,469.5z M232.691,473.695
				c0,0.562,0.128,0.994,0.385,1.295c0.257,0.302,0.594,0.454,1.011,0.454c0.355,0,0.661-0.154,0.918-0.463
				c0.257-0.309,0.385-0.751,0.385-1.327c0-0.372-0.053-0.694-0.16-0.962c-0.107-0.269-0.258-0.477-0.455-0.623
				c-0.197-0.146-0.426-0.22-0.688-0.22c-0.269,0-0.509,0.073-0.719,0.22c-0.21,0.146-0.376,0.358-0.497,0.636
				C232.751,472.981,232.691,473.312,232.691,473.695z"/>
			<path id="XMLID_1088_" style="fill:#FFFFFF;" d="M238.639,476.711l0.129-0.316l-1.738-4.376
				c-0.107-0.251-0.161-0.435-0.161-0.548c0-0.121,0.031-0.232,0.093-0.336c0.062-0.104,0.147-0.187,0.256-0.248
				c0.109-0.063,0.222-0.094,0.339-0.094c0.203,0,0.357,0.065,0.461,0.194c0.104,0.129,0.195,0.314,0.274,0.556l1.195,3.476
				l1.133-3.233c0.089-0.261,0.171-0.467,0.243-0.615c0.072-0.148,0.149-0.248,0.23-0.299c0.081-0.052,0.196-0.078,0.344-0.078
				c0.107,0,0.21,0.028,0.308,0.086c0.098,0.057,0.174,0.134,0.227,0.23c0.053,0.096,0.08,0.198,0.08,0.305
				c-0.014,0.065-0.036,0.158-0.067,0.28c-0.031,0.12-0.069,0.244-0.114,0.367l-1.841,4.821c-0.159,0.424-0.314,0.756-0.466,0.998
				c-0.152,0.242-0.352,0.428-0.603,0.556c-0.25,0.13-0.587,0.194-1.011,0.194c-0.413,0-0.724-0.045-0.93-0.134
				c-0.208-0.09-0.311-0.254-0.311-0.492c0-0.162,0.049-0.287,0.148-0.375c0.098-0.088,0.244-0.132,0.436-0.132
				c0.076,0,0.15,0.011,0.223,0.032c0.09,0.02,0.167,0.031,0.232,0.031c0.162,0,0.29-0.024,0.383-0.073
				c0.093-0.048,0.176-0.131,0.251-0.251C238.457,477.117,238.543,476.941,238.639,476.711z"/>
		</g>
		<g id="XMLID_1065_">
			<path id="XMLID_1086_" style="fill:#FFFFFF;" d="M259.097,470.915h0.337v-0.424c0-0.444,0.054-0.794,0.167-1.055
				c0.111-0.261,0.303-0.45,0.57-0.569c0.267-0.118,0.633-0.178,1.098-0.178c0.827,0,1.238,0.2,1.238,0.607
				c0,0.13-0.043,0.242-0.131,0.335c-0.084,0.092-0.187,0.139-0.304,0.139c-0.054,0-0.152-0.01-0.287-0.033
				c-0.129-0.018-0.246-0.03-0.339-0.03c-0.255,0-0.417,0.077-0.493,0.226c-0.069,0.15-0.106,0.364-0.106,0.645v0.336h0.345
				c0.54,0,0.807,0.162,0.807,0.488c0,0.228-0.069,0.376-0.214,0.438c-0.143,0.062-0.34,0.093-0.593,0.093h-0.345v3.742
				c0,0.278-0.065,0.49-0.201,0.636c-0.131,0.148-0.302,0.221-0.513,0.221c-0.2,0-0.365-0.073-0.5-0.221
				c-0.133-0.146-0.198-0.358-0.198-0.636v-3.742h-0.389c-0.212,0-0.372-0.046-0.487-0.143c-0.114-0.093-0.171-0.218-0.171-0.369
				C258.387,471.083,258.623,470.915,259.097,470.915"/>
			<path id="XMLID_1085_" style="fill:#FFFFFF;" d="M263.72,474.496v1.181c0,0.285-0.072,0.5-0.204,0.642
				c-0.135,0.145-0.304,0.215-0.511,0.215c-0.208,0-0.375-0.071-0.505-0.218c-0.129-0.144-0.196-0.357-0.196-0.639v-3.934
				c0-0.635,0.229-0.953,0.687-0.953c0.236,0,0.405,0.073,0.508,0.222c0.103,0.149,0.161,0.367,0.173,0.658
				c0.167-0.291,0.34-0.509,0.516-0.658c0.181-0.149,0.415-0.222,0.713-0.222c0.299,0,0.584,0.073,0.863,0.222
				c0.281,0.149,0.42,0.347,0.42,0.591c0,0.171-0.06,0.316-0.178,0.426c-0.12,0.114-0.247,0.17-0.385,0.17
				c-0.054,0-0.18-0.034-0.377-0.098c-0.199-0.062-0.375-0.094-0.524-0.094c-0.207,0-0.377,0.056-0.507,0.162
				c-0.132,0.112-0.235,0.271-0.307,0.483c-0.07,0.215-0.119,0.471-0.148,0.765C263.732,473.711,263.72,474.072,263.72,474.496"/>
			<path id="XMLID_1082_" style="fill:#FFFFFF;" d="M270.212,474.009h-2.763c0.005,0.32,0.068,0.605,0.193,0.849
				c0.128,0.243,0.294,0.428,0.504,0.554c0.21,0.124,0.438,0.185,0.691,0.185c0.169,0,0.323-0.018,0.463-0.061
				c0.138-0.038,0.275-0.101,0.406-0.186c0.132-0.083,0.25-0.173,0.362-0.272c0.11-0.095,0.254-0.227,0.43-0.392
				c0.073-0.062,0.177-0.095,0.31-0.095c0.146,0,0.262,0.04,0.354,0.121c0.09,0.08,0.132,0.191,0.132,0.336
				c0,0.128-0.048,0.277-0.146,0.446c-0.102,0.173-0.252,0.336-0.455,0.494c-0.204,0.155-0.457,0.287-0.761,0.389
				c-0.305,0.104-0.657,0.156-1.052,0.156c-0.91,0-1.614-0.258-2.117-0.774c-0.503-0.519-0.758-1.221-0.758-2.107
				c0-0.418,0.064-0.805,0.189-1.163c0.122-0.359,0.304-0.662,0.544-0.919c0.237-0.256,0.528-0.451,0.878-0.587
				c0.347-0.136,0.733-0.204,1.159-0.204c0.551,0,1.024,0.117,1.419,0.352c0.394,0.23,0.694,0.532,0.887,0.901
				c0.197,0.371,0.295,0.745,0.295,1.13c0,0.353-0.103,0.583-0.306,0.689C270.867,473.957,270.581,474.009,270.212,474.009
				 M267.449,473.206h2.56c-0.034-0.482-0.162-0.844-0.389-1.082c-0.228-0.241-0.522-0.36-0.893-0.36
				c-0.352,0-0.641,0.12-0.867,0.364C267.634,472.372,267.496,472.731,267.449,473.206"/>
			<path id="XMLID_1079_" style="fill:#FFFFFF;" d="M276.087,474.009h-2.763c0.003,0.32,0.068,0.605,0.193,0.849
				c0.126,0.243,0.294,0.428,0.502,0.554c0.208,0.124,0.439,0.185,0.692,0.185c0.168,0,0.323-0.018,0.46-0.061
				c0.141-0.038,0.275-0.101,0.409-0.186c0.132-0.083,0.25-0.173,0.361-0.272c0.109-0.095,0.253-0.227,0.429-0.392
				c0.073-0.062,0.178-0.095,0.309-0.095c0.146,0,0.263,0.04,0.354,0.121c0.09,0.08,0.131,0.191,0.131,0.336
				c0,0.128-0.047,0.277-0.149,0.446c-0.096,0.173-0.248,0.336-0.452,0.494c-0.202,0.155-0.457,0.287-0.76,0.389
				c-0.304,0.104-0.658,0.156-1.054,0.156c-0.908,0-1.611-0.258-2.117-0.774c-0.503-0.519-0.756-1.221-0.756-2.107
				c0-0.418,0.063-0.805,0.189-1.163c0.123-0.359,0.304-0.662,0.543-0.919c0.237-0.256,0.53-0.451,0.879-0.587
				c0.347-0.136,0.736-0.204,1.159-0.204c0.549,0,1.023,0.117,1.423,0.352c0.392,0.23,0.689,0.532,0.883,0.901
				c0.196,0.371,0.297,0.745,0.297,1.13c0,0.353-0.104,0.583-0.306,0.689C276.741,473.957,276.455,474.009,276.087,474.009
				 M273.324,473.206h2.56c-0.035-0.482-0.165-0.844-0.389-1.082c-0.229-0.241-0.524-0.36-0.895-0.36
				c-0.352,0-0.64,0.12-0.867,0.364C273.508,472.372,273.37,472.731,273.324,473.206"/>
			<path id="XMLID_1076_" style="fill:#FFFFFF;" d="M279.18,471.585v0.169c0.265-0.327,0.541-0.567,0.83-0.721
				c0.282-0.155,0.609-0.233,0.971-0.233c0.433,0,0.836,0.113,1.202,0.336c0.365,0.225,0.653,0.553,0.865,0.984
				c0.212,0.433,0.319,0.942,0.319,1.532c0,0.434-0.061,0.834-0.183,1.199c-0.122,0.364-0.293,0.668-0.506,0.915
				c-0.214,0.245-0.466,0.437-0.757,0.57c-0.295,0.131-0.605,0.198-0.941,0.198c-0.402,0-0.743-0.081-1.016-0.244
				c-0.274-0.159-0.535-0.4-0.785-0.711v2.12c0,0.619-0.227,0.931-0.677,0.931c-0.267,0-0.44-0.08-0.529-0.239
				c-0.083-0.163-0.127-0.394-0.127-0.703v-6.096c0-0.27,0.058-0.468,0.174-0.603c0.117-0.13,0.279-0.198,0.482-0.198
				c0.201,0,0.363,0.068,0.488,0.204C279.119,471.132,279.18,471.326,279.18,471.585 M281.949,473.637
				c0-0.373-0.058-0.694-0.171-0.96c-0.114-0.268-0.272-0.472-0.472-0.614c-0.2-0.143-0.426-0.216-0.671-0.216
				c-0.389,0-0.718,0.155-0.985,0.46c-0.268,0.309-0.403,0.76-0.403,1.358c0,0.559,0.133,0.998,0.401,1.311
				c0.265,0.312,0.591,0.467,0.987,0.467c0.233,0,0.452-0.069,0.652-0.203c0.202-0.138,0.362-0.341,0.481-0.614
				C281.888,474.352,281.949,474.022,281.949,473.637"/>
			<path id="XMLID_1073_" style="fill:#FFFFFF;" d="M284.79,470.133c-0.197,0-0.364-0.062-0.503-0.182
				c-0.141-0.121-0.211-0.29-0.211-0.51c0-0.201,0.071-0.365,0.216-0.496c0.143-0.128,0.308-0.194,0.498-0.194
				c0.185,0,0.346,0.058,0.487,0.174c0.141,0.119,0.213,0.291,0.213,0.515c0,0.217-0.069,0.387-0.206,0.509
				C285.145,470.07,284.981,470.133,284.79,470.133 M285.489,471.592v4.086c0,0.281-0.068,0.495-0.202,0.638
				c-0.136,0.147-0.305,0.218-0.513,0.218c-0.207,0-0.373-0.073-0.505-0.221c-0.127-0.15-0.194-0.362-0.194-0.635v-4.045
				c0-0.278,0.066-0.487,0.194-0.629c0.132-0.144,0.298-0.213,0.505-0.213c0.208,0,0.377,0.069,0.513,0.213
				C285.422,471.145,285.489,471.342,285.489,471.592"/>
			<path id="XMLID_1072_" style="fill:#FFFFFF;" d="M290.042,475.889l-1.244-2.051l-0.767,0.723v1.125
				c0,0.272-0.072,0.48-0.216,0.626c-0.14,0.148-0.309,0.221-0.494,0.221c-0.217,0-0.389-0.071-0.512-0.218
				c-0.123-0.144-0.187-0.357-0.187-0.639v-6.025c0-0.312,0.062-0.551,0.18-0.715c0.121-0.166,0.297-0.246,0.519-0.246
				c0.218,0,0.388,0.074,0.517,0.224c0.128,0.147,0.193,0.367,0.193,0.655v3.427l1.588-1.668c0.197-0.205,0.345-0.349,0.451-0.424
				c0.103-0.076,0.228-0.113,0.375-0.113c0.178,0,0.323,0.056,0.444,0.168c0.115,0.112,0.174,0.254,0.174,0.421
				c0,0.206-0.193,0.484-0.574,0.829l-0.75,0.688l1.448,2.278c0.105,0.171,0.184,0.296,0.231,0.384
				c0.046,0.087,0.071,0.174,0.071,0.252c0,0.225-0.062,0.4-0.186,0.531c-0.122,0.129-0.285,0.193-0.482,0.193
				c-0.172,0-0.307-0.044-0.4-0.139C290.329,476.3,290.2,476.131,290.042,475.889"/>
			<path id="XMLID_1071_" style="fill:#FFFFFF;" d="M293.111,476.534c-0.213,0-0.396-0.069-0.552-0.207
				c-0.155-0.136-0.233-0.33-0.233-0.58c0-0.21,0.075-0.391,0.223-0.542c0.149-0.152,0.331-0.228,0.549-0.228
				c0.216,0,0.401,0.076,0.557,0.224c0.152,0.15,0.23,0.333,0.23,0.546c0,0.246-0.078,0.44-0.23,0.577
				C293.498,476.465,293.317,476.534,293.111,476.534"/>
			<path id="XMLID_1070_" style="fill:#FFFFFF;" d="M300.136,474.785c0,0.174-0.053,0.364-0.158,0.563
				c-0.104,0.202-0.266,0.391-0.482,0.572c-0.215,0.181-0.486,0.328-0.814,0.438c-0.327,0.11-0.697,0.167-1.106,0.167
				c-0.875,0-1.557-0.256-2.047-0.763c-0.488-0.51-0.733-1.193-0.733-2.048c0-0.581,0.111-1.092,0.337-1.538
				c0.222-0.444,0.547-0.788,0.97-1.031c0.424-0.244,0.934-0.365,1.522-0.365c0.367,0,0.702,0.053,1.009,0.161
				c0.305,0.106,0.562,0.246,0.776,0.413c0.211,0.171,0.373,0.351,0.485,0.54c0.113,0.191,0.167,0.371,0.167,0.538
				c0,0.168-0.062,0.311-0.187,0.429c-0.128,0.117-0.281,0.177-0.457,0.177c-0.119,0-0.216-0.031-0.295-0.09
				c-0.078-0.061-0.166-0.158-0.261-0.295c-0.173-0.261-0.352-0.458-0.542-0.588c-0.187-0.132-0.425-0.197-0.715-0.197
				c-0.415,0-0.754,0.162-1.009,0.489c-0.255,0.324-0.383,0.773-0.383,1.336c0,0.266,0.034,0.512,0.1,0.734
				c0.064,0.222,0.158,0.412,0.283,0.569c0.126,0.156,0.274,0.275,0.45,0.356c0.176,0.083,0.371,0.123,0.579,0.123
				c0.284,0,0.526-0.065,0.728-0.196c0.205-0.131,0.382-0.331,0.537-0.6c0.086-0.159,0.178-0.282,0.277-0.372
				c0.099-0.089,0.223-0.136,0.368-0.136c0.172,0,0.316,0.067,0.428,0.197C300.078,474.497,300.136,474.638,300.136,474.785"/>
			<path id="XMLID_1067_" style="fill:#FFFFFF;" d="M306.23,473.663c0,0.419-0.066,0.808-0.194,1.165
				c-0.134,0.355-0.322,0.66-0.572,0.914c-0.248,0.255-0.546,0.451-0.889,0.588c-0.348,0.135-0.735,0.204-1.165,0.204
				c-0.428,0-0.813-0.07-1.155-0.208c-0.339-0.136-0.638-0.335-0.886-0.589c-0.251-0.259-0.44-0.563-0.573-0.913
				c-0.125-0.35-0.191-0.738-0.191-1.16c0-0.428,0.068-0.82,0.195-1.175c0.132-0.356,0.321-0.66,0.566-0.911
				c0.246-0.252,0.541-0.445,0.888-0.583c0.35-0.136,0.735-0.204,1.155-0.204c0.427,0,0.816,0.068,1.165,0.208
				c0.347,0.137,0.644,0.335,0.895,0.588c0.249,0.258,0.437,0.561,0.566,0.911C306.165,472.851,306.23,473.237,306.23,473.663
				 M304.812,473.663c0-0.577-0.128-1.024-0.38-1.345c-0.252-0.324-0.594-0.483-1.021-0.483c-0.276,0-0.52,0.072-0.731,0.214
				c-0.211,0.143-0.371,0.354-0.484,0.634c-0.114,0.28-0.172,0.606-0.172,0.98c0,0.37,0.056,0.69,0.169,0.966
				c0.113,0.278,0.273,0.489,0.482,0.635c0.21,0.145,0.455,0.22,0.737,0.22c0.427,0,0.768-0.161,1.021-0.486
				C304.685,474.677,304.812,474.23,304.812,473.663"/>
			<path id="XMLID_1066_" style="fill:#FFFFFF;" d="M311.617,473.767v1.877c0,0.298-0.065,0.518-0.201,0.669
				c-0.136,0.148-0.311,0.222-0.532,0.222c-0.214,0-0.389-0.074-0.518-0.222c-0.135-0.15-0.203-0.371-0.203-0.669v-2.25
				c0-0.356-0.011-0.633-0.035-0.83c-0.025-0.193-0.091-0.357-0.197-0.481c-0.107-0.128-0.277-0.192-0.507-0.192
				c-0.463,0-0.766,0.158-0.913,0.48c-0.146,0.314-0.221,0.77-0.221,1.365v1.907c0,0.293-0.067,0.515-0.197,0.667
				c-0.136,0.149-0.309,0.224-0.526,0.224c-0.215,0-0.39-0.076-0.526-0.224c-0.137-0.151-0.205-0.373-0.205-0.667v-4.04
				c0-0.266,0.061-0.469,0.182-0.605c0.125-0.14,0.287-0.208,0.485-0.208c0.194,0,0.355,0.067,0.486,0.194
				c0.129,0.13,0.193,0.309,0.193,0.536v0.133c0.247-0.292,0.509-0.507,0.787-0.643c0.281-0.141,0.589-0.21,0.933-0.21
				c0.355,0,0.659,0.071,0.914,0.212c0.256,0.142,0.465,0.357,0.632,0.641c0.239-0.288,0.495-0.503,0.768-0.643
				c0.272-0.14,0.573-0.21,0.905-0.21c0.385,0,0.72,0.078,0.999,0.228c0.278,0.152,0.486,0.37,0.625,0.651
				c0.12,0.257,0.18,0.659,0.18,1.207v2.757c0,0.298-0.067,0.518-0.2,0.669c-0.134,0.148-0.313,0.222-0.534,0.222
				c-0.215,0-0.389-0.076-0.525-0.224c-0.136-0.151-0.205-0.373-0.205-0.667v-2.375c0-0.304-0.013-0.546-0.038-0.729
				c-0.026-0.183-0.096-0.338-0.208-0.461c-0.115-0.124-0.289-0.187-0.519-0.187c-0.186,0-0.363,0.058-0.53,0.168
				c-0.167,0.108-0.298,0.26-0.393,0.442C311.671,472.74,311.617,473.162,311.617,473.767"/>
		</g>
		<g id="XMLID_1050_">
			<path id="XMLID_1064_" style="fill:#FFFFFF;" d="M245.88,473.321c-0.001-0.003-0.001-0.005-0.001-0.01
				C245.879,473.316,245.879,473.319,245.88,473.321z"/>
			<path id="XMLID_1063_" style="fill:#FFFFFF;" d="M245.951,473.773c0.001,0,0.001,0,0.002,0c-0.027-0.129-0.048-0.256-0.065-0.382
				C245.905,473.517,245.926,473.646,245.951,473.773z"/>
			<path id="XMLID_1062_" style="fill:#FFFFFF;" d="M246.419,475.083c-0.003-0.005-0.006-0.012-0.009-0.018
				C246.413,475.072,246.416,475.078,246.419,475.083z"/>
			<path id="XMLID_1061_" style="fill:#FFFFFF;" d="M246.374,474.996c-0.012-0.024-0.024-0.049-0.036-0.073
				C246.35,474.949,246.362,474.972,246.374,474.996z"/>
			<path id="XMLID_1060_" style="fill:#FFFFFF;" d="M246.083,474.277c0.069,0.218,0.152,0.429,0.249,0.631
				c-0.098-0.206-0.18-0.418-0.247-0.631H246.083z"/>
			<path id="XMLID_1059_" style="fill:#FFFFFF;" d="M251.347,467.91c0.273,0,0.474,0.022,0.705,0.061l0.066-0.415
				c0,0-0.638-0.196-1.476-0.128l-0.066-0.226c0.261-0.055,0.456-0.287,0.456-0.563c0-0.317-0.258-0.574-0.576-0.574
				c-0.317,0-0.575,0.257-0.575,0.574c0,0.276,0.195,0.508,0.455,0.563l0.073,0.252c-0.89,0.122-1.598,0.47-1.598,0.47l0.126,0.384
				c0.538-0.179,1.005-0.288,1.429-0.334C250.78,467.929,251.092,467.91,251.347,467.91z"/>
			<path id="XMLID_1058_" style="fill:#FFFFFF;" d="M246.408,470.011l0.003-0.004c0.021-0.027,0.041-0.053,0.062-0.078l-0.17-0.123
				l-0.266-0.194c-0.015,0.021-0.433,0.405-0.763,1.115c-0.014-0.022-0.03-0.044-0.049-0.065c-0.099-0.108-0.237-0.163-0.413-0.16
				c-0.002,0-0.005,0-0.008,0c-0.109,0-0.183-0.036-0.232-0.08c0.049-0.062,0.078-0.139,0.078-0.225
				c0-0.201-0.163-0.364-0.365-0.364c-0.201,0-0.364,0.164-0.364,0.364c0,0.202,0.163,0.364,0.364,0.364
				c0.032,0,0.062-0.005,0.091-0.011c0.09,0.099,0.232,0.186,0.44,0.182c0.107-0.001,0.186,0.027,0.238,0.085
				c0.06,0.066,0.081,0.161,0.087,0.233c-0.001,0.001-0.001,0.003-0.002,0.003c-0.237,0.648-0.169,1.454-0.169,1.454l0.576,0.023
				c0.012-0.294,0.054-0.807,0.202-1.215C246.035,470.525,246.393,470.032,246.408,470.011z"/>
			<path id="XMLID_1057_" style="fill:#FFFFFF;" d="M256.357,468.391c-0.201,0-0.364,0.163-0.364,0.364
				c0,0.031,0.005,0.061,0.013,0.09c-0.1,0.09-0.187,0.233-0.184,0.441c0.002,0.107-0.026,0.185-0.084,0.238
				c-0.046,0.041-0.104,0.063-0.161,0.077c-0.429-0.6-0.956-0.967-0.956-0.967l-0.413,0.443c0.312,0.284,0.631,0.64,0.941,1.084
				c0.214,0.307,0.435,0.703,0.619,1.097l0.558-0.265c0,0-0.255-0.629-0.613-1.193c0.062-0.022,0.125-0.056,0.18-0.105
				c0.109-0.098,0.163-0.238,0.16-0.413c-0.001-0.113,0.036-0.19,0.081-0.24c0.062,0.047,0.14,0.078,0.224,0.078
				c0.202,0,0.365-0.163,0.365-0.364C256.721,468.554,256.559,468.391,256.357,468.391z"/>
			<path id="XMLID_1056_" style="fill:#FFFFFF;" d="M254.91,473.402c-0.768,0.374-2.031,0.868-3.693,1.1
				c-0.653,0.09-1.285,0.124-1.867,0.124c-0.757,0-1.427-0.056-1.94-0.121c-0.586-0.074-1.044-0.164-1.325-0.228
				c0.067,0.213,0.149,0.425,0.247,0.631c0.002,0.005,0.004,0.011,0.007,0.015c0.012,0.024,0.023,0.049,0.036,0.073
				c0.012,0.024,0.023,0.047,0.035,0.069c0.003,0.006,0.006,0.013,0.009,0.018c0.165,0.311,0.363,0.596,0.589,0.844
				c0.784,0.858,1.583,0.993,1.591,0.995l0.012,0.002l0.012,0.004c0.007,0.003,0.716,0.231,1.793,0.231
				c1.059,0,2.099-0.214,3.09-0.636c0.734-0.375,1.428-0.946,1.772-1.454c0.266-0.393,0.458-0.813,0.572-1.249
				c0.061-0.232,0.109-0.603,0.08-0.994C255.713,472.971,255.372,473.178,254.91,473.402z"/>
			<path id="XMLID_1051_" style="fill:#FFFFFF;" d="M246.655,470.193c-0.022,0.033-0.355,0.504-0.618,1.227
				c-0.197,0.542-0.188,1.331-0.188,1.34v0.001c0,0.185,0.01,0.369,0.031,0.551c0,0.004,0,0.007,0.001,0.01
				c0.002,0.023,0.006,0.046,0.008,0.069c0.016,0.126,0.037,0.254,0.065,0.382c0.381,0.097,2.657,0.628,5.2,0.273
				c1.594-0.222,2.804-0.693,3.539-1.049c0.611-0.296,1.003-0.564,1.155-0.674c-0.151-0.56-0.568-1.438-0.949-1.986
				c-1.092-1.56-2.269-1.961-2.874-2.06c-0.231-0.038-0.415-0.06-0.677-0.06c-0.244,0-0.546,0.02-0.949,0.062
				c-0.405,0.042-0.856,0.148-1.379,0.324c-0.734,0.246-1.398,0.631-1.921,1.115l-0.018,0.016
				C247.002,469.806,246.84,469.956,246.655,470.193z M253.337,469.83c0.523,0,0.949,0.426,0.949,0.949
				c0,0.524-0.426,0.95-0.949,0.95c-0.524,0-0.949-0.426-0.949-0.95C252.388,470.255,252.813,469.83,253.337,469.83z
				 M248.848,469.792c0.848,0,1.534,0.687,1.534,1.534s-0.686,1.533-1.534,1.533c-0.847,0-1.534-0.686-1.534-1.533
				S248.001,469.792,248.848,469.792z"/>
		</g>
	</g>
</g>
</svg>
